<?xml version="1.0" standalone="no"?>
<!DOCTYPE svg PUBLIC "-//W3C//DTD SVG 20010904//EN"
 "http://www.w3.org/TR/2001/REC-SVG-20010904/DTD/svg10.dtd">
<svg version="1.0" xmlns="http://www.w3.org/2000/svg"
 width="181.000000pt" height="91.000000pt" viewBox="0 0 181.000000 91.000000"
 preserveAspectRatio="xMidYMid meet">
<metadata>
Created by potrace 1.13, written by Peter Selinger 2001-2015
</metadata>
<g transform="translate(0.000000,91.000000) scale(0.100000,-0.100000)"
fill="#000000" stroke="none">
<path d="M0 455 l0 -455 905 0 905 0 0 455 0 455 -905 0 -905 0 0 -455z m360
140 l0 -85 -110 0 -109 0 34 81 c19 44 35 83 35 85 0 2 34 4 75 4 l75 0 0 -85z
m180 5 l0 -80 -70 0 -70 0 0 80 0 80 70 0 70 0 0 -80z m160 0 l0 -80 -70 0
-70 0 0 80 0 80 70 0 70 0 0 -80z m150 0 l0 -80 -65 0 -65 0 0 80 0 80 65 0
65 0 0 -80z m160 0 l0 -80 -70 0 -70 0 0 80 0 80 70 0 70 0 0 -80z m160 0 l0
-80 -70 0 -70 0 0 80 0 80 70 0 70 0 0 -80z m150 0 l0 -80 -65 0 -65 0 0 80 0
80 65 0 65 0 0 -80z m160 0 l0 -80 -70 0 -70 0 0 80 0 80 70 0 70 0 0 -80z
m140 0 l0 -80 -60 0 -60 0 0 80 0 80 60 0 60 0 0 -80z m70 -180 l0 -40 -775 0
-775 0 0 40 0 40 775 0 775 0 0 -40z m-141 -147 c-1 -58 -2 -63 -10 -37 -14
50 -71 94 -121 94 -34 0 -47 -6 -79 -39 -23 -22 -39 -49 -39 -62 -1 -22 -2
-21 -14 6 -21 48 -71 85 -116 85 -45 0 -95 -37 -116 -85 -13 -29 -13 -27 -14
38 l0 67 255 0 255 0 -1 -67z"/>
</g>
</svg>
